# xmcd
#
# Track frame offsets: 
#        150
#        17116
#        33320
#        48906
#        67479
#        89873
#        109677
#        124550
#        140951
#        160520
#        178872
#        193326
#        209880
#        226597
#        245274
#        262343
#
# Disc length: 3713 seconds
#
# Revision: 0
# Processed by: cddbd v1.5PL3 Copyright (c) Steve Scherf et al.
# Submitted via: ExactAudioCopy v0.95a4
#
DISCID=f70e7f10
DTITLE=徐小鳳 - 20世紀光輝印記 Cd2
DYEAR=1900
DGENRE=Folk
TTITLE0=順流逆流
TTITLE1=隨想曲
TTITLE2=城市足印
TTITLE3=重逢
TTITLE4=文明淚\
TTITLE5=戀色感情
TTITLE6=夢飛行
TTITLE7=誰又欠了誰
TTITLE8=某夜
TTITLE9=月光光
TTITLE10=情比雨絲
TTITLE11=這是真愛
TTITLE12=星星問
TTITLE13=藍與黑
TTITLE14=老人與海
TTITLE15=夜風中
EXTD=
EXTT0=
EXTT1=
EXTT2=
EXTT3=
EXTT4=
EXTT5=
EXTT6=
EXTT7=
EXTT8=
EXTT9=
EXTT10=
EXTT11=
EXTT12=
EXTT13=
EXTT14=
EXTT15=
PLAYORDER=
